<svg xmlns="http://www.w3.org/2000/svg"  viewBox="0 0 128 128" width="50px" height="50px"><path d="M 9 11 C 7.3 11 6 12.3 6 14 C 6 15.7 7.3 17 9 17 L 16 17 L 16 69 C 16 70.7 17.3 72 19 72 C 20.7 72 22 70.7 22 69 L 22 27 L 109.30078 27 C 110.60078 27 111.8 27.599219 112.5 28.699219 C 113.3 29.799219 113.5 31.100781 113 32.300781 L 99.300781 73.5 C 97.800781 78 93.700391 81 88.900391 81 L 26 81 C 20.5 81 16 85.5 16 91 C 16 96.5 20.5 101 26 101 L 73.5 101 C 77.1 101 80 103.9 80 107.5 C 80 109.2 81.3 110.5 83 110.5 C 84.7 110.5 86 109.2 86 107.5 C 86 100.6 80.4 95 73.5 95 L 26 95 C 23.8 95 22 93.2 22 91 C 22 88.8 23.8 87 26 87 L 88.900391 87 C 96.200391 87 102.7 82.300391 105 75.400391 L 118.69922 34.199219 C 119.69922 31.099219 119.20078 27.799219 117.30078 25.199219 C 115.40078 22.599219 112.39922 21 109.19922 21 L 22 21 L 22 14 C 22 12.3 20.7 11 19 11 L 9 11 z M 26 107 C 20.5 107 16 111.5 16 117 C 16 122.5 20.5 127 26 127 C 31.5 127 36 122.5 36 117 C 36 111.5 31.5 107 26 107 z M 71.0625 109 C 70.3 109 69.55 109.30039 69 109.90039 C 67.1 111.80039 66.099609 114.3 66.099609 117 C 66.099609 122.5 70.599609 127 76.099609 127 C 81.599609 127 86.099609 122.5 86.099609 117 C 86.099609 115.3 84.799609 114 83.099609 114 C 81.399609 114 80.099609 115.3 80.099609 117 C 80.099609 119.2 78.299609 121 76.099609 121 C 73.899609 121 72.099609 119.2 72.099609 117 C 72.099609 115.9 72.500781 114.89922 73.300781 114.19922 C 74.300781 112.99922 74.299219 111.10039 73.199219 109.90039 C 72.599219 109.30039 71.825 109 71.0625 109 z M 26 113 C 28.2 113 30 114.8 30 117 C 30 119.2 28.2 121 26 121 C 23.8 121 22 119.2 22 117 C 22 114.8 23.8 113 26 113 z"/></svg>