<svg id="Capa_1" data-name="Capa 1" xmlns="http://www.w3.org/2000/svg" xmlns:xlink="http://www.w3.org/1999/xlink" viewBox="0 0 172.605 29.167"><defs><clipPath id="clip-path" transform="translate(-0.192 -0.131)"><rect x="-4.795" y="-10.286" width="49.997" height="50" fill="none"/></clipPath></defs><title>logo</title><g id="Texto"><g id="AluraGeek"><path d="M124.878,21.531a6.79,6.79,0,0,1-4.95,2.125,7.94,7.94,0,0,1-3.3-.7,8.51,8.51,0,0,1-2.674-1.925,9.555,9.555,0,0,1-1.8-2.875,9.853,9.853,0,0,1-.65-3.6,8.927,8.927,0,0,1,2.475-6.25,8.6,8.6,0,0,1,2.749-1.925,8.082,8.082,0,0,1,3.425-.725,8.251,8.251,0,0,1,4.275,1.05,6.77,6.77,0,0,1,2.7,2.825l-2.575,1.9a4.745,4.745,0,0,0-1.9-2.025,5.114,5.114,0,0,0-2.625-.7,4.572,4.572,0,0,0-2.075.475,5,5,0,0,0-1.6,1.3,6.5,6.5,0,0,0-1.024,1.9,7.28,7.28,0,0,0-.35,2.275,6.82,6.82,0,0,0,.4,2.35,6,6,0,0,0,1.1,1.875,5.371,5.371,0,0,0,1.65,1.275,4.95,4.95,0,0,0,2.1.45,6.052,6.052,0,0,0,4.65-2.425v-1.25H121.3V14.406h6.425v9.125h-2.85Z" transform="translate(-0.192 -0.131)" fill="#464646"/><path d="M136.418,23.781a7.421,7.421,0,0,1-2.85-.525,6.573,6.573,0,0,1-3.575-3.625,7.054,7.054,0,0,1-.475-2.575,7.185,7.185,0,0,1,.475-2.625,6.271,6.271,0,0,1,1.375-2.175,6.485,6.485,0,0,1,2.175-1.5,7.363,7.363,0,0,1,2.9-.55,7,7,0,0,1,2.849.55,6.393,6.393,0,0,1,2.15,1.475,6.019,6.019,0,0,1,1.35,2.15,6.981,6.981,0,0,1,.475,2.55c0,.216-.008.425-.025.625a2.073,2.073,0,0,1-.05.5H133.068a3.891,3.891,0,0,0,.375,1.375,3.368,3.368,0,0,0,1.85,1.675,3.528,3.528,0,0,0,1.25.225,3.875,3.875,0,0,0,1.874-.475,2.629,2.629,0,0,0,1.225-1.3l2.875.8a5.9,5.9,0,0,1-2.325,2.475A7.175,7.175,0,0,1,136.418,23.781Zm3.4-7.9a3.408,3.408,0,0,0-1.1-2.35,3.426,3.426,0,0,0-3.6-.65,3.135,3.135,0,0,0-1.025.65,3.616,3.616,0,0,0-.75,1.025,3.752,3.752,0,0,0-.325,1.325Z" transform="translate(-0.192 -0.131)" fill="#464646"/><path d="M151.382,23.781a7.421,7.421,0,0,1-2.85-.525,6.567,6.567,0,0,1-3.574-3.625,7.054,7.054,0,0,1-.475-2.575,7.185,7.185,0,0,1,.475-2.625,6.283,6.283,0,0,1,1.374-2.175,6.485,6.485,0,0,1,2.175-1.5,7.37,7.37,0,0,1,2.9-.55,7,7,0,0,1,2.85.55,6.393,6.393,0,0,1,2.15,1.475,6.019,6.019,0,0,1,1.35,2.15,7,7,0,0,1,.475,2.55c0,.216-.009.425-.025.625a2.125,2.125,0,0,1-.05.5H148.032a3.891,3.891,0,0,0,.375,1.375,3.368,3.368,0,0,0,1.85,1.675,3.532,3.532,0,0,0,1.25.225,3.876,3.876,0,0,0,1.875-.475,2.633,2.633,0,0,0,1.225-1.3l2.875.8a5.9,5.9,0,0,1-2.325,2.475A7.177,7.177,0,0,1,151.382,23.781Zm3.4-7.9a3.408,3.408,0,0,0-1.1-2.35,3.427,3.427,0,0,0-3.6-.65,3.145,3.145,0,0,0-1.025.65,3.616,3.616,0,0,0-.75,1.025,3.8,3.8,0,0,0-.325,1.325Z" transform="translate(-0.192 -0.131)" fill="#464646"/><path d="M169.222,23.531l-3.8-5.675-1.8,1.775v3.9h-3.349V5.281h3.349V16.356l5.25-5.9h3.575l-4.875,5.55,5.225,7.525Z" transform="translate(-0.192 -0.131)" fill="#464646"/></g><g id="AluraGeek_2" data-name="AluraGeek 2"><path d="M53.569,5.781h3.05l6.75,17.75h-3.55l-1.65-4.425h-6.2l-1.625,4.425H46.8Zm3.975,10.9-2.45-6.975-2.55,6.975Z" transform="translate(-0.192 -0.131)" fill="#2a7ae4"/><path d="M64.965,5.281h3.35v14.05a1.656,1.656,0,0,0,.35,1.125,1.26,1.26,0,0,0,1,.4,2.4,2.4,0,0,0,.65-.1,4.373,4.373,0,0,0,.7-.25l.45,2.55a6.523,6.523,0,0,1-1.575.5,8.642,8.642,0,0,1-1.625.175,3.432,3.432,0,0,1-2.45-.825,3.249,3.249,0,0,1-.85-2.4Z" transform="translate(-0.192 -0.131)" fill="#2a7ae4"/><path d="M76.924,23.781a3.722,3.722,0,0,1-3.075-1.3,6.026,6.026,0,0,1-1.049-3.85v-8.2h3.349v7.475q0,3.024,2.175,3.025a3.436,3.436,0,0,0,1.875-.575,4.27,4.27,0,0,0,1.5-1.8V10.431h3.35v9.25a1.239,1.239,0,0,0,.175.75.867.867,0,0,0,.625.25v2.85a7.226,7.226,0,0,1-.85.125c-.217.016-.417.025-.6.025a2.531,2.531,0,0,1-1.475-.4,1.687,1.687,0,0,1-.65-1.15l-.075-1.05a5.578,5.578,0,0,1-2.25,2.025A6.772,6.772,0,0,1,76.924,23.781Z" transform="translate(-0.192 -0.131)" fill="#2a7ae4"/><path d="M96.177,13.331a6.463,6.463,0,0,0-2.725.6,3.379,3.379,0,0,0-1.724,1.675v7.925h-3.35v-13.1h3.075v2.8a5.638,5.638,0,0,1,.825-1.2,6.038,6.038,0,0,1,1.024-.95,4.482,4.482,0,0,1,1.1-.6,3.019,3.019,0,0,1,1.1-.225h.4a1.377,1.377,0,0,1,.275.025Z" transform="translate(-0.192 -0.131)" fill="#2a7ae4"/><path d="M101.449,23.781a5.156,5.156,0,0,1-1.775-.3,4.573,4.573,0,0,1-1.425-.875,4.413,4.413,0,0,1-.95-1.325,4.117,4.117,0,0,1-.325-1.65,3.656,3.656,0,0,1,.4-1.7,4.074,4.074,0,0,1,1.15-1.35,5.658,5.658,0,0,1,1.775-.85,7.4,7.4,0,0,1,2.25-.325,9.488,9.488,0,0,1,1.7.15,6.909,6.909,0,0,1,1.5.425v-.75a2.6,2.6,0,0,0-.75-2,3.017,3.017,0,0,0-2.175-.7,5.8,5.8,0,0,0-2.05.375,9.483,9.483,0,0,0-2.05,1.1L97.7,11.881a9.671,9.671,0,0,1,5.45-1.675,6.3,6.3,0,0,1,4.375,1.4,5.023,5.023,0,0,1,1.575,4v4.075a1.239,1.239,0,0,0,.175.75.867.867,0,0,0,.625.25v2.85a7.517,7.517,0,0,1-1.475.175,2.287,2.287,0,0,1-1.475-.425,1.851,1.851,0,0,1-.625-1.125l-.075-.725a5.812,5.812,0,0,1-2.125,1.75A6.1,6.1,0,0,1,101.449,23.781Zm.95-2.45a4.266,4.266,0,0,0,1.6-.3,2.917,2.917,0,0,0,1.2-.8,1.2,1.2,0,0,0,.55-.95v-1.5a7.368,7.368,0,0,0-1.3-.35,6.445,6.445,0,0,0-1.35-.15,3.524,3.524,0,0,0-2.125.6,1.733,1.733,0,0,0-.825,1.475,1.83,1.83,0,0,0,.65,1.425A2.4,2.4,0,0,0,102.4,21.331Z" transform="translate(-0.192 -0.131)" fill="#2a7ae4"/></g></g><g clip-path="url(#clip-path)"><g id="sports_esports_black_24dp_1" data-name="sports_esports_black_24dp 1"><g id="Group"><g id="Group_2" data-name="Group 2"><path id="Vector" d="M40.161,23.235,37.89,7.277A8.325,8.325,0,0,0,29.641.131H10.767a8.326,8.326,0,0,0-8.25,7.146L.247,23.235a5.3,5.3,0,0,0,9,4.5l4.708-4.687h12.5l4.688,4.687a5.311,5.311,0,0,0,9.02-4.5Zm-22.04-10.6H13.954V16.8H11.871V12.631H7.705V10.548h4.166V6.381h2.083v4.167h4.167Zm8.332-2.083a2.084,2.084,0,1,1,2.084-2.084A2.09,2.09,0,0,1,26.453,10.548ZM30.62,16.8A2.084,2.084,0,1,1,32.7,14.714,2.09,2.09,0,0,1,30.62,16.8Z" transform="translate(-0.192 -0.131)" fill="#2a7ae4"/></g></g></g></g></svg>